<svg id="Capa_1" data-name="Capa 1" xmlns="http://www.w3.org/2000/svg" viewBox="0 0 216.5 216.5"><defs><style>.cls-1{fill:#045e30;}.cls-2{fill:#7fbb40;}.cls-10,.cls-11,.cls-3,.cls-4,.cls-5,.cls-7,.cls-8{fill:none;stroke-miterlimit:10;}.cls-3{stroke:#000;}.cls-3,.cls-4{stroke-width:0.25px;}.cls-10,.cls-11,.cls-4,.cls-7,.cls-8{stroke:#fff;}.cls-10,.cls-11,.cls-4{stroke-linecap:round;}.cls-5{stroke:#045e30;stroke-width:2px;}.cls-6{font-size:24px;font-family:JACKPORT COLLEGE NCV;}.cls-6,.cls-9{fill:#fff;}.cls-8{stroke-width:0.95px;}.cls-10{stroke-width:0.25px;}.cls-11{stroke-width:0.6px;}</style></defs><title>logo-torneo 2</title><circle class="cls-1" cx="108.25" cy="108.25" r="100.38"/><circle class="cls-2" cx="108.25" cy="108.25" r="70.47"/><path class="cls-3" d="M501.78,77.88" transform="translate(-5.65 -6.75)"/><path class="cls-4" d="M64.6,215.52" transform="translate(-5.65 -6.75)"/><path class="cls-4" d="M162.41,215.52" transform="translate(-5.65 -6.75)"/><circle class="cls-5" cx="108.25" cy="108.25" r="107.25"/><text class="cls-6" transform="matrix(0.62, -0.79, 0.79, 0.62, 42.97, 64.74)">T</text><text class="cls-6" transform="translate(50.53 55.22) rotate(-43.76)">O</text><text class="cls-6" transform="matrix(0.81, -0.59, 0.59, 0.81, 57.98, 48.05)">R</text><text class="cls-6" transform="translate(67.37 41.26) rotate(-26.97)">N</text><text class="cls-6" transform="translate(78.58 35.66) rotate(-18.43)">E</text><text class="cls-6" transform="matrix(0.98, -0.18, 0.18, 0.98, 88.82, 32.29)">O</text><text class="cls-6" transform="matrix(0.99, 0.17, -0.17, 0.99, 116.53, 30.3)">S</text><text class="cls-6" transform="translate(126.72 32.05) rotate(17.28)">O</text><text class="cls-6" transform="translate(136.77 35.21) rotate(25.03)">O</text><text class="cls-6" transform="matrix(0.84, 0.54, -0.54, 0.84, 146.23, 39.68)">C</text><text class="cls-6" transform="translate(154.68 45.07) rotate(40.13)">E</text><text class="cls-6" transform="matrix(0.67, 0.75, -0.75, 0.67, 162.9, 52)">R</text><text class="cls-6" transform="matrix(0.59, 0.81, -0.81, 0.59, 170.32, 60.6)"> </text><text class="cls-6" transform="matrix(0.52, 0.86, -0.86, 0.52, 172.66, 63.59)">C</text><text class="cls-6" transform="matrix(0.39, 0.92, -0.92, 0.39, 177.9, 72.14)">U</text><text class="cls-6" transform="translate(182.57 83.21) rotate(75.33)">P</text><text class="cls-6" transform="matrix(0.16, 0.99, -0.99, 0.16, 185.11, 93.54)"> </text><path class="cls-7" d="M146.44,65.93c-1.39,0-3.67.14-4.62,0.19a1.19,1.19,0,0,0-.71.27c-1.81,1.52-10.87,7.42-13.67,9.24a1.74,1.74,0,0,0-.79,1.52l0.73,21.9c0.08,1.31.56,4,.71,4.93a1.49,1.49,0,0,1,0,.58,22.25,22.25,0,0,1-1.29,4.16,3.24,3.24,0,0,0-.29,1.24l-0.08,3.09a2.41,2.41,0,0,0,.37,1.32,22.12,22.12,0,0,1,2.73,9.77,1,1,0,0,0,0,.25,29.2,29.2,0,0,1,1.13,5.91l-0.12,19c0.28,2.25-2,12.19-2.83,15.45a1,1,0,0,0,.69,1.16,18.47,18.47,0,0,1,2.89,1.22,1.19,1.19,0,0,0,.55.12c2.71,0,3.71.92,4,1.89a1.51,1.51,0,0,1-1.49,2c-2.94.12-9,1-11.59,1.32a1.06,1.06,0,0,1-1.21-1c-0.18-5.09-.81-25-0.12-26.86s-0.49-7-.8-8.33a0.84,0.84,0,0,0-.32-0.47c-6-4.46-5.79-10.07-5.58-11.7a0.41,0.41,0,0,0-.41-0.46h-3a1.34,1.34,0,0,0-.94.4c-2.06,2.06-3.57,1.93-4.14,1.76a0.34,0.34,0,0,0-.4.19c-0.72,1.48-4,8.32-5.27,11-1.42,3-3.87,2.13-3.87,2.13C94,139,89.76,127,89,124.6a0.72,0.72,0,0,0-.58-0.48c-0.8-.12-2.44-0.3-2.69.11a5.1,5.1,0,0,1-2.1,1,0.68,0.68,0,0,1-.8-0.31c-0.34-.62-0.69-1.95.34-4.33,1.54-3.56,8.1-7.25,8.1-7.25s3.06-1.17,2.19,6c0,0,1,4,1.88,4.4,0,0,.9,1.67,1.94-0.44,0,0,2.75-6.31,1.94-7.94,0,0-.69-2.31,2.62-7.06a30.26,30.26,0,0,0,1.54-3.13,1.55,1.55,0,0,0,.09-0.49,16,16,0,0,1,1.54-6.4,3.9,3.9,0,0,0,.4-1.75V92.19s0.56-2.56-1.69.81c-2,3-14.57,15.29-17.51,18.15a2.86,2.86,0,0,0-.77,1.36A7.27,7.27,0,0,1,82,117.26s-0.35.55-.6-1.44a0.43,0.43,0,0,0-.71-0.28,28.08,28.08,0,0,0-3.13,3,1,1,0,0,1-1.38.2c-0.58-.46-1-1.35.26-3,0,0,10.48-10.9,11.69-14.38a1.36,1.36,0,0,1,.18-0.35l6.27-8.79a0.8,0.8,0,0,0,0-.87h0a1,1,0,0,1,.08-1.17c1.51-1.93,6.46-8.35,7-10.28a1.27,1.27,0,0,1,.29-0.52c1.1-1.24,5.47-6,8.09-6.5a0.83,0.83,0,0,0,.62-0.82l-0.07-1.81a1.69,1.69,0,0,0-.65-1.26c-1.3-1-4-4-.83-9.57a5.79,5.79,0,0,1,2.5-2.42c1.4-.67,3.52-1,6.2.8a3.19,3.19,0,0,1,1.31,1.77c0.51,1.73,1.19,5.21-.22,8.35a2.4,2.4,0,0,0-.23,1.16l0.09,1.18a0.67,0.67,0,0,0,.85.6,4.81,4.81,0,0,0,1.58-.77s7.68-3.24,9.73-3a1.82,1.82,0,0,0,.81-0.08c2.13-.77,10.65-3.94,11.58-5.58,0,0,3.31-4.25,6.31-3.25,0,0,5.81-.37,0,2.31,0,0-3.44,2-2.94,2.38a8.83,8.83,0,0,0,3,.32,0.32,0.32,0,0,1,.33.31C150,64.26,149.71,65.87,146.44,65.93Z" transform="translate(-5.65 -6.75)"/><circle class="cls-8" cx="103.44" cy="158.35" r="8.33"/><circle class="cls-9" cx="103.48" cy="158.39" r="2.43"/><path class="cls-8" d="M103.66,159.58c0.93,0.56,5.48,2.95,7.17-2a0.17,0.17,0,0,1,.29-0.06c0.45,0.59,1.65,2,2.89,1.58a0.17,0.17,0,0,1,.18.26c-0.88,1.5-2.8,5.71,2.89,6.49a0.13,0.13,0,0,1,.07.22c-0.79.62-3.1,2.67-1.62,4.36,0,0-6.2-5.09-7.7,2.43a0.05,0.05,0,0,1-.09,0c-0.35-.55-2-3-4.33-2.14a0.11,0.11,0,0,1-.13-0.15c0.78-1.21,3.31-5.71-2.07-5.84a0.12,0.12,0,0,1-.08-0.22,5.58,5.58,0,0,0,2.38-4.8A0.11,0.11,0,0,1,103.66,159.58Z" transform="translate(-5.65 -6.75)"/><polygon class="cls-9" points="108.25 13.65 110.7 18.63 116.19 19.43 112.22 23.3 113.16 28.76 108.25 26.18 103.34 28.76 104.28 23.3 100.31 19.43 105.8 18.63 108.25 13.65"/><path class="cls-4" d="M110.31,201.44" transform="translate(-5.65 -6.75)"/><path class="cls-4" d="M107.77,204.3s-12.4,3.11-14.15,4.37c0,0,12.66-6.37,13.73-5.55,0,0-10-6.8-19.43,8.26,0,0,10.93-1.3,11.49-1.23,0.71,0.09,7.49-1.58,8.44-5.86" transform="translate(-5.65 -6.75)"/><path class="cls-4" d="M116.71,201.44" transform="translate(-5.65 -6.75)"/><path class="cls-4" d="M119.25,204.3s12.4,3.11,14.15,4.37c0,0-12.66-6.37-13.73-5.55,0,0,10-6.8,19.43,8.26,0,0-10.93-1.3-11.49-1.23-0.71.09-7.49-1.58-8.44-5.86" transform="translate(-5.65 -6.75)"/><path class="cls-4" d="M29,147.24" transform="translate(-5.65 -6.75)"/><path class="cls-10" d="M117,201.44a3,3,0,1,1-3-3.28A3.07,3.07,0,0,1,117,201.44Z" transform="translate(-5.65 -6.75)"/><path class="cls-11" d="M32.15,137.87s16.6,61.13,78.63,63.57" transform="translate(-5.65 -6.75)"/><path class="cls-4" d="M97.29,188.26" transform="translate(-5.65 -6.75)"/><path class="cls-4" d="M107.35,199S98,190.27,97.1,188.32c0,0,8,11.72,9.32,11.52,0,0-12,1.1-13-16.65,0,0,8.93,6.44,9.45,6.65s5.78,5,4.53,9.22" transform="translate(-5.65 -6.75)"/><path class="cls-4" d="M94.16,196.84s-7.57-9.65-8.17-11.72c0,0,5.25,12,6.6,12,0,0-11.44,0-9.6-17.67,0,0,7.32,7.35,7.8,7.63s5.26,5.75,3.37,9.7" transform="translate(-5.65 -6.75)"/><path class="cls-4" d="M81.57,192.23S76.69,183.8,76.43,182c0,0,3.06,10.48,4.18,10.65,0,0-9.91-2.1-6.29-16.53,0,0,5.56,7.36,5.93,7.66s3.39,5.44,1.35,8.49" transform="translate(-5.65 -6.75)"/><path class="cls-4" d="M71.71,187s-3.56-7-3.57-8.83c0,0,1.25,8.6,2.34,8.92,0,0-9.37-2.4-3.85-16.22,0,0,4.26,7,4.7,7.67s2.85,5.78.42,8.53" transform="translate(-5.65 -6.75)"/><path class="cls-4" d="M62.68,181s-2.08-5.42-1.85-7.12c0,0-.35,6.52.65,7,0,0-8.67-3.78-1.54-15.88,0,0,3.15,7.3,3.49,8s2,5.9-.73,8.09" transform="translate(-5.65 -6.75)"/><path class="cls-4" d="M55.65,174.45s-1.77-6.14-1.46-7.78c0,0-.45,7.4.41,7.77,0,0-5.91-1.7-.08-14.13,0,0,1.64,5.79,1.9,6.4s1.27,5.23-.75,7.8" transform="translate(-5.65 -6.75)"/><path class="cls-4" d="M49.71,167.76s-1.22-5.79-.82-7.24c0,0-.92,6.66-0.16,7.1,0,0-5.36-2.28.9-12.83,0,0,1.12,5.46,1.32,6s0.81,4.91-1.23,7" transform="translate(-5.65 -6.75)"/><path class="cls-4" d="M44.85,161.64s-0.84-3.28-.36-4.7c0,0-.87,3.91-0.38,4.45,0,0-3.46-3.68,1.34-10.58,0,0,.66,2.92.93,4.63,0.21,1.33.31,4.2-1.53,6.2" transform="translate(-5.65 -6.75)"/><path class="cls-4" d="M41.23,155.4s-0.63-2.86-.16-4.12c0,0-.89,3.46-0.48,3.92,0,0-2.9-3.15,1.52-9.34,0,0,.48,2.55.66,4.05a7,7,0,0,1-1.54,5.49" transform="translate(-5.65 -6.75)"/><path class="cls-4" d="M37.74,149.69a8.31,8.31,0,0,1,.37-3.17,4.45,4.45,0,0,0-1,2.57s-2.22-2.16,2-6.36a12.46,12.46,0,0,1,.54,3,5.06,5.06,0,0,1-1.88,4" transform="translate(-5.65 -6.75)"/><path class="cls-4" d="M94.24,202.51S82,202.75,80,203.59c0,0,12.65-3.55,13.51-2.51,0,0-7.22-8.87-19.76,3.74,0,0,10.32,1,10.85,1.21s7.78,0.44,9.65-3.52" transform="translate(-5.65 -6.75)"/><path class="cls-4" d="M79.41,196.59s-9.73-.39-11.43.22c0,0,10.7-2.18,11.37-1.27,0,0-6.48-7.79-17.56,2.15,0,0,9.11,1.49,9.54,1.67s6.4,0.46,8.15-2.76" transform="translate(-5.65 -6.75)"/><path class="cls-4" d="M69.38,190.72s-7.8-1.11-9.51-.55c0,0,8.55-1.58,9.2-.65,0,0-5.29-8.1-16.6,1.56,0,0,8,1.77,8.77,2s6.39,0.84,8.22-2.34" transform="translate(-5.65 -6.75)"/><path class="cls-4" d="M59.79,183.87s-5.48-1.91-7.17-1.64c0,0,6.51-.54,7,0.44,0,0-4-8.55-15.92-1.07,0,0,7.39,2.93,8.07,3.25s6,1.79,8.07-1" transform="translate(-5.65 -6.75)"/><path class="cls-4" d="M52.27,177.3s-4.77-4.25-6.38-4.68c0,0,6.87,2.8,6.82,3.73,0,0,1-6.06-12.71-6.18,0,0,4.51,4,5,4.48s4.17,3.41,7.35,2.7" transform="translate(-5.65 -6.75)"/><path class="cls-4" d="M45.62,169s-4.69-3.6-6.17-3.87c0,0,6.4,2,6.47,2.93,0,0,.26-5.82-12-4.74,0,0,4.44,3.37,4.88,3.8s4.07,2.86,6.82,1.91" transform="translate(-5.65 -6.75)"/><path class="cls-4" d="M42.2,162s-2.59-2.18-4.08-2.36c0,0,3.9.91,4.17,1.58,0,0-1.82-4.71-10.12-3.37,0,0,2.34,1.86,3.77,2.85,1.11,0.77,3.65,2.09,6.25,1.3" transform="translate(-5.65 -6.75)"/><path class="cls-4" d="M38.14,156.05s-2.31-1.8-3.65-1.93c0,0,3.51.7,3.74,1.27,0,0-1.59-4-9.08-2.67,0,0,2.09,1.54,3.37,2.35a7,7,0,0,0,5.62,1" transform="translate(-5.65 -6.75)"/><path class="cls-4" d="M35.7,150.42a5.74,5.74,0,0,0-2.61-1,6,6,0,0,1,2.85.37s-1.09-3.1-6.69-1.14a12.46,12.46,0,0,0,2.48,1.79,4.19,4.19,0,0,0,4,0" transform="translate(-5.65 -6.75)"/><path class="cls-11" d="M195.82,137.87s-16.6,61.13-78.63,63.57" transform="translate(-5.65 -6.75)"/><path class="cls-4" d="M130.69,188.26" transform="translate(-5.65 -6.75)"/><path class="cls-4" d="M120.62,199s9.33-8.73,10.25-10.68c0,0-8,11.72-9.32,11.52,0,0,12,1.1,13-16.65,0,0-8.93,6.44-9.45,6.65s-5.78,5-4.53,9.22" transform="translate(-5.65 -6.75)"/><path class="cls-4" d="M133.81,196.84s7.57-9.65,8.17-11.72c0,0-5.25,12-6.6,12,0,0,11.44,0,9.6-17.67,0,0-7.32,7.35-7.8,7.63s-5.26,5.75-3.37,9.7" transform="translate(-5.65 -6.75)"/><path class="cls-4" d="M146.41,192.23s4.88-8.43,5.13-10.21c0,0-3.06,10.48-4.18,10.65,0,0,9.91-2.1,6.29-16.53,0,0-5.56,7.36-5.93,7.66s-3.39,5.44-1.35,8.49" transform="translate(-5.65 -6.75)"/><path class="cls-4" d="M156.26,187s3.56-7,3.57-8.83c0,0-1.25,8.6-2.34,8.92,0,0,9.37-2.4,3.85-16.22,0,0-4.26,7-4.7,7.67s-2.85,5.78-.42,8.53" transform="translate(-5.65 -6.75)"/><path class="cls-4" d="M165.29,181s2.08-5.42,1.85-7.12c0,0,.35,6.52-0.65,7,0,0,8.67-3.78,1.54-15.88,0,0-3.15,7.3-3.49,8s-2,5.9.73,8.09" transform="translate(-5.65 -6.75)"/><path class="cls-4" d="M172.32,174.45s1.77-6.14,1.46-7.78c0,0,.45,7.4-0.41,7.77,0,0,5.91-1.7.08-14.13,0,0-1.64,5.79-1.9,6.4s-1.27,5.23.75,7.8" transform="translate(-5.65 -6.75)"/><path class="cls-4" d="M178.27,167.76s1.22-5.79.82-7.24c0,0,.92,6.66.16,7.1,0,0,5.36-2.28-.9-12.83,0,0-1.12,5.46-1.32,6s-0.81,4.91,1.23,7" transform="translate(-5.65 -6.75)"/><path class="cls-4" d="M183.12,161.64s0.84-3.28.36-4.7c0,0,.87,3.91.38,4.45,0,0,3.46-3.68-1.34-10.58,0,0-.66,2.92-0.93,4.63-0.21,1.33-.31,4.2,1.53,6.2" transform="translate(-5.65 -6.75)"/><path class="cls-4" d="M186.74,155.4s0.63-2.86.16-4.12c0,0,.89,3.46.48,3.92,0,0,2.9-3.15-1.52-9.34,0,0-.48,2.55-0.66,4.05a7,7,0,0,0,1.54,5.49" transform="translate(-5.65 -6.75)"/><path class="cls-4" d="M190.24,149.69a8.31,8.31,0,0,0-.37-3.17s1,2.18.85,2.79c0,0,2.37-2.39-1.82-6.59a12.46,12.46,0,0,0-.54,3,5.06,5.06,0,0,0,1.88,4" transform="translate(-5.65 -6.75)"/><path class="cls-4" d="M133.73,202.51S146,202.75,148,203.59c0,0-12.65-3.55-13.51-2.51,0,0,7.22-8.87,19.76,3.74,0,0-10.32,1-10.85,1.21s-7.78.44-9.65-3.52" transform="translate(-5.65 -6.75)"/><path class="cls-4" d="M148.56,196.59s9.73-.39,11.43.22c0,0-10.7-2.18-11.37-1.27,0,0,6.48-7.79,17.56,2.15,0,0-9.11,1.49-9.54,1.67s-6.4.46-8.15-2.76" transform="translate(-5.65 -6.75)"/><path class="cls-4" d="M158.6,190.72s7.8-1.11,9.51-.55c0,0-8.55-1.58-9.2-.65,0,0,5.29-8.1,16.6,1.56,0,0-8,1.77-8.77,2s-6.39.84-8.22-2.34" transform="translate(-5.65 -6.75)"/><path class="cls-4" d="M168.19,183.87s5.48-1.91,7.17-1.64c0,0-6.51-.54-7,0.44,0,0,4-8.55,15.92-1.07,0,0-7.39,2.93-8.07,3.25s-6,1.79-8.07-1" transform="translate(-5.65 -6.75)"/><path class="cls-4" d="M175.71,177.3s4.77-4.25,6.38-4.68c0,0-6.87,2.8-6.82,3.73,0,0-1-6.06,12.71-6.18,0,0-4.51,4-5,4.48s-4.17,3.41-7.35,2.7" transform="translate(-5.65 -6.75)"/><path class="cls-4" d="M182.36,169s4.69-3.6,6.17-3.87c0,0-6.4,2-6.47,2.93,0,0-.26-5.82,12-4.74,0,0-4.44,3.37-4.88,3.8s-4.07,2.86-6.82,1.91" transform="translate(-5.65 -6.75)"/><path class="cls-4" d="M185.78,162s2.59-2.18,4.08-2.36c0,0-3.9.91-4.17,1.58,0,0,1.82-4.71,10.12-3.37,0,0-2.34,1.86-3.77,2.85-1.11.77-3.65,2.09-6.25,1.3" transform="translate(-5.65 -6.75)"/><path class="cls-4" d="M189.84,156.05s2.31-1.8,3.65-1.93c0,0-3.51.7-3.74,1.27,0,0,1.59-4,9.08-2.67,0,0-2.09,1.54-3.37,2.35a7,7,0,0,1-5.62,1" transform="translate(-5.65 -6.75)"/><path class="cls-4" d="M191.87,150.43a8.31,8.31,0,0,1,3-1,17.15,17.15,0,0,0-2.88.5s1.12-3.23,6.72-1.27a12.46,12.46,0,0,1-2.48,1.79,5.06,5.06,0,0,1-4.38,0" transform="translate(-5.65 -6.75)"/></svg>